<svg xmlns="http://www.w3.org/2000/svg" viewBox="0 0 570 153"><defs><style>.cls-1{fill:#f0f3f2;}.cls-2{fill:#e3558b;}.cls-3,.cls-5{fill:#fff;}.cls-3{opacity:0.1;}.cls-4{opacity:0.3;}.cls-6{fill:#3b4754;}</style></defs><title>logo_top</title><g id="レイヤー_2" data-name="レイヤー 2"><g id="レイヤー_1-2" data-name="レイヤー 1"><rect class="cls-1" x="153" width="417" height="153"/><rect class="cls-2" width="153" height="153"/><circle class="cls-2" cx="77" cy="76.5" r="62"/><circle class="cls-3" cx="77" cy="76.5" r="41.33"/><g class="cls-4"><path class="cls-5" d="M77,14.5a62,62,0,1,0,62,62A62,62,0,0,0,77,14.5Zm0,103.33A41.33,41.33,0,1,1,118.33,76.5,41.33,41.33,0,0,1,77,117.83Z"/></g><circle class="cls-5" cx="25.59" cy="76.53" r="1.89"/><circle class="cls-5" cx="128.41" cy="76.53" r="1.89"/><path class="cls-5" d="M129.13,91.17,128,91l.72-3.62L127.17,87v.21c-.44.72-.15,2-.62,2.69-.11.08-.1.06-.31.1l-.83-.31a23.94,23.94,0,0,0,.62-2.89h-.21c-.68-.43-1.92-.17-2.58-.62-.08-.12-.08-.17-.1-.41a3,3,0,0,0,.21-.83h.1c.46.3,1.13.15,1.76.31,1.49.37,3.39.41,4.86.93C129.76,87.89,129.36,89.55,129.13,91.17Z"/><path class="cls-5" d="M23.94,87.25l1.14-.1a31.13,31.13,0,0,0,.72,3.93,5.29,5.29,0,0,0,1.45-.41A15.64,15.64,0,0,1,26.52,87h.21a1.94,1.94,0,0,1,.93-.21,11.51,11.51,0,0,0,.72,3.41c.11.08.1.06.31.1a3.55,3.55,0,0,1,1.45-.41L29.41,86l1.14-.21V86l1,4.75h-.21a5.74,5.74,0,0,1-1.45.41c-1.58.52-3.26,1.16-5,1.55C24.86,90.87,24,89.26,23.94,87.25Z"/><path class="cls-5" d="M33,95.1c.06.49.23.66.31,1.14a23.21,23.21,0,0,0-4.24,3.2h.1c.85-.77,3.49-1.61,4.65-2.17a1.72,1.72,0,0,0,.41.83c-.07.18,0,.1-.1.21a8.69,8.69,0,0,1-1.45.72,20.37,20.37,0,0,1-4.65,2.38c-.18-.76-.62-1.33-.83-2.07,1.28-.75,2.38-2.2,3.82-2.69v-.1c-1.58.16-2.94.67-4.65.72a15.45,15.45,0,0,1-.62-2.17,19.58,19.58,0,0,0,3.41-1.24c1-.42,2.05-.59,3-1V93a1.86,1.86,0,0,1,.31.93,31.12,31.12,0,0,1-4.65,1.86v.1h.52Z"/><path class="cls-5" d="M127,93a40.79,40.79,0,0,0-5-1.65l-.31.93c.31.73,2,.69,2.58,1.14a1.29,1.29,0,0,1-.31.93c-.5,1.24-2.4.56-3.31,1.14-.27.17-.3.9-.52,1.14v.1c1.05,0,2.73-.08,3.31-.62.36.25.11.84.31,1.24a2.11,2.11,0,0,0,1.24.93c.38.28.82.16,1.34.1A7.29,7.29,0,0,0,128,95.51a6.45,6.45,0,0,1,.52-1.76C128.33,93.11,127.58,93.24,127,93Zm-.93,4a1.26,1.26,0,0,1-1.24-.31,19.17,19.17,0,0,1,.62-2.89,15.65,15.65,0,0,1,1.65.52A22.55,22.55,0,0,1,126,97.06Z"/><path class="cls-5" d="M125.72,101c-.1.81-1.85,4.29-2.38,4.55-.24-.3-.65-.36-.83-.72a8.51,8.51,0,0,0,1.55-3h.1c.1-.1-.1-.1-.1-.1a2,2,0,0,0-1.24-.62,9.59,9.59,0,0,1-1.55,2.89c-.29-.27-.74-.34-.93-.72a6.87,6.87,0,0,0,1.45-2.89c-.52-.14-1.26-.78-1.65-.62-.56.63-1.06,2.68-1.86,2.89-.24-.3-.56-.33-.72-.72.62-.69,1.53-3.62,2.27-3.82a9.42,9.42,0,0,0,2.07,1C123,99.72,124.35,100.76,125.72,101Z"/><path class="cls-5" d="M33.55,101c-1,.66-2.18.66-2.89,1.65a3.25,3.25,0,0,0,1.45,4.86C36.21,108.68,39.75,100.84,33.55,101Zm2.17,3.41c-.57.62-2.29,2.91-3.62,1.65-.81-.27-.92-1.27-.83-2.17a7.68,7.68,0,0,1,1-1.14c.44-.29,1-.32,1.45-.62l1,.1a5.48,5.48,0,0,0,.83.72A6.44,6.44,0,0,1,35.72,104.4Z"/><path class="cls-5" d="M116.53,103.57l5.79,3.82a35.47,35.47,0,0,1-2.79,3.93h-.1v-.1a2,2,0,0,1-.83-.72,9.22,9.22,0,0,0,2.07-2.79,3.8,3.8,0,0,1-1-.72c-.18.07-.1,0-.21.1a8.41,8.41,0,0,0-1.76,2.38c-.18-.07-.1,0-.21-.1a1.79,1.79,0,0,1-.83-.62,8.79,8.79,0,0,0,1.86-2.58,3.6,3.6,0,0,1-1.45-1h-.1v.1a14.52,14.52,0,0,0-2,2.58h-.21c-.24-.34-.56-.39-.72-.83A12.31,12.31,0,0,0,116.53,103.57Z"/><path class="cls-5" d="M41.3,108.84c-.92.33-1.4,1.41-2.27,1.86a3,3,0,0,0-.62-.72c0-1.57.64-2.23.93-3.41-.31-.29-.47-.69-.83-.93-.32,1.16-1.13,1.88-1.14,3.31a3.57,3.57,0,0,0-1.86-.31c-.16.16-.32.17-.52.31-.35.26-.53.72-.83,1,0,2.34,1.7,2.88,2.58,4.34.67-.24.93-1,1.45-1.34A29.29,29.29,0,0,0,41,110.39c.27-.27.6-.39.83-.72h.1v-.1A2,2,0,0,1,41.3,108.84ZM37,112.56v.1h-.1a7,7,0,0,0-1.45-1.76,1.42,1.42,0,0,1,.41-1.14h.72c.46.48,1.22,1,1.45,1.65h.1A2.38,2.38,0,0,1,37,112.56Z"/><path class="cls-5" d="M43.16,111.74l-1.34.41a4.57,4.57,0,0,0-2.48,4.34c.8.84,1.61,2.18,2.79,2.58.11.08,0,0,.21.1.61-1,1.51-1.7,2.17-2.58A13.08,13.08,0,0,1,46.57,114v-.21C45.37,113.07,44.85,112,43.16,111.74Zm-1,5.79v.1H42A19.43,19.43,0,0,0,40.47,116c0-1.85,1.33-2.28,2.38-3.1,1.15.05,1.46.76,2.17,1.24A19.26,19.26,0,0,1,42.13,117.52Z"/><path class="cls-5" d="M114.15,113.91c-1.22-.92-2-2.46-3.31-3.31a10.07,10.07,0,0,1-2.17,2l-.62.93a2.2,2.2,0,0,0,1.34,2.38v.1h1c-.36,1,.32,1.5.72,2.07,2.39.55,3.18-1.49,4.65-2.48C115.55,114.84,114.72,114.34,114.15,113.91Zm-3.62,1c-.92,0-1.2-.21-1.34-.93.54-.62,1.3-1.21,1.76-1.86.5.34.74.91,1.24,1.24C111.76,114,111,114.34,110.53,114.94Zm1.76,2.07a2.4,2.4,0,0,1-.83-.21c-.07-.18,0-.1-.1-.21,0-1.32,1-1.48,1.55-2.27.56.2.78.73,1.24,1A10.7,10.7,0,0,1,112.29,117Z"/><path class="cls-5" d="M48.12,115c.49.22.9.42.93,1.14-.42.65-.52,3.39-.52,4.44h.1v-.21c.9-.74,1.5-3,2.48-3.51a2.48,2.48,0,0,0,.72.52A37.72,37.72,0,0,1,49,121.86c-.32.48-.38,1.2-1,1.34-.52-.49-.85-.34-.83-1.45a37.82,37.82,0,0,0,.52-4.24h-.1a21.61,21.61,0,0,1-2.69,3.72c-.27-.28-.66-.44-.93-.72h.1C45.09,118.51,47,117,48.12,115Z"/><path class="cls-5" d="M104.74,115.66c2.53-.08,5.41,2.54,4.34,5.06-.55,1.3-3.81,2.78-4.55.72a2,2,0,0,0,.72-.62,4.29,4.29,0,0,0,1.55.41c.18-.17.4-.16.62-.31s.39-.59.62-.83c.06-2-1.06-3.36-3.1-3.31-.27.26-.72.41-.93.72s-.14.44-.31.62a1.24,1.24,0,0,0,.62.83c.21-.23,1-.72,1.14-.62a3.47,3.47,0,0,1,.62.93c-.85.26-1.38,1-2.27,1.24-.28-1-1.25-1.47-1.34-2.69.41-.44.55-1.19,1-1.55S104.38,115.95,104.74,115.66Z"/><path class="cls-5" d="M100.09,118.35c.21,0,.2,0,.31.1a11.82,11.82,0,0,1,1.14,2.07,16.57,16.57,0,0,1,2.17,3.82c-.71.17-1.16.63-1.86.83-.49-1.41-2.18-2.19-2.69-3.62h-.1v.31a13.31,13.31,0,0,1,1,4.13,7.31,7.31,0,0,1-1.86.72c-.52-2.22-2.19-4-2.58-6.3l.93-.31c.4,1.63,1.61,2.9,2.07,4.55h.1v-.31l-1.24-4.75a8.23,8.23,0,0,1,1-.31,20.63,20.63,0,0,0,3.2,3.93c-.68-1.51-1.81-2.9-2.27-4.55A1.18,1.18,0,0,0,100.09,118.35Z"/><path class="cls-5" d="M53.49,126l-.1-3.1h-.1a6.33,6.33,0,0,1-2.58,1.76,2.43,2.43,0,0,0-1-.52c.09-.11,0,0,.1-.1,1-1,2.51-1.5,3.62-2.38L54.83,119a3.29,3.29,0,0,1,.93.52,4.09,4.09,0,0,0-.52,1,10.79,10.79,0,0,0-.83,1.45l.31,4.44h-.21A2.13,2.13,0,0,0,53.49,126Z"/><path class="cls-5" d="M61.14,123.93A1.88,1.88,0,0,0,61,123c-.11-.34-.18-.4-.52-.52a1.75,1.75,0,0,0-1.14-.21c-.17.23-.29.21-.41.52a.89.89,0,0,0-.1.52c.55.51,1.15.87,1.76,1.34l.62.93a5.86,5.86,0,0,1-.21,1.65c-.32.21-.43.48-.83.62-1,.83-3-.3-3.2-1a1.81,1.81,0,0,1,0-1.65,3.48,3.48,0,0,1,.93.41,3.58,3.58,0,0,1,.21.93c.62.33,1.81.83,2-.31-.92-.81-3.41-2.14-2.07-4.13.26-.39.8-.61,1.14-.93a3.16,3.16,0,0,1,3,1.24,6.45,6.45,0,0,1,0,1.76H62A2,2,0,0,0,61.14,123.93Z"/><path class="cls-5" d="M92.66,127c-.31-.86-1.31-4.64-1.76-5.06-.62.45-1.59.32-2.38.62-.5.19-.82.66-1.24.93-.51,2.08-.28,5.06,1.65,5.58.61.42,3.54-.23,4-.62A4.61,4.61,0,0,0,92.66,127Zm-3.31,1-.72-.52c-.37-.54-1-2.49-.41-3.2.27-.75,1.15-.53,1.76-.93h.41l1.24,4.24A5.34,5.34,0,0,1,89.35,128.06Z"/><path class="cls-5" d="M76.53,123.93c.28,2.47,1.87,4.47,2.27,6.82H77.57l-1.65-5v.1a27.23,27.23,0,0,0-1.45,3.62c-.13.3-.15,1-.41,1.14H72.81v-.21c.67-.77,1.52-3.47,2-4.55a11.3,11.3,0,0,1,.62-2Z"/><path class="cls-5" d="M82.12,123.52c-.12.08-.17.08-.41.1-.59.54-1.23.82-1.55,1.65-1,2.64.74,6.19,3.72,5.17S86,123.41,82.12,123.52Zm2.38,4.75c-.33.35-.41.75-.93.93s-.84.15-1.34.1c-.25-.25-.64-.41-.83-.72-.64-1.05-.43-3.38.62-3.72.09-.07.32-.14.41-.21a1.41,1.41,0,0,1,1,.31C84.51,125.32,84.58,127.05,84.49,128.27Z"/><path class="cls-5" d="M63.1,125.07c.86.05,1.4.36,2.27.41l-.21,1.24h-.1a5.44,5.44,0,0,0-2.17-.52Z"/><path class="cls-5" d="M71.68,123.62a3.84,3.84,0,0,0-.72,1.55,3.29,3.29,0,0,1-1.34-.21,1.58,1.58,0,0,1-.93-.21l-.1-1.45h-.1v-.1a.89.89,0,0,1-.52-.1h-.52l.52,3.82a18,18,0,0,1,.62,3.2h.1v.1h.93c.33-.18.54-1.19.72-1.55.61-1.17,2.13-3.58,2.27-5A1.92,1.92,0,0,1,71.68,123.62Zm-2.27,4.65v.21c-.4-.51-.31-1.7-.52-2.38a.89.89,0,0,1,.52.1,3,3,0,0,1,.93.1A4.35,4.35,0,0,1,69.41,128.27Z"/><path class="cls-5" d="M24.87,61.93l1.14.21-.72,3.62,1.55.31v-.21c.44-.72.15-2,.62-2.69.11-.08.1-.06.31-.1l.83.31A23.94,23.94,0,0,0,28,66.27h.21c.68.43,1.92.17,2.58.62.08.12.08.17.1.41a3,3,0,0,0-.21.83h-.1c-.46-.3-1.13-.15-1.76-.31-1.49-.37-3.39-.41-4.86-.93C24.24,65.21,24.64,63.55,24.87,61.93Z"/><path class="cls-5" d="M130.06,65.86l-1.14.1A31.13,31.13,0,0,0,128.2,62a5.29,5.29,0,0,0-1.45.41,15.64,15.64,0,0,1,.72,3.62h-.21a1.94,1.94,0,0,1-.93.21,11.51,11.51,0,0,0-.72-3.41c-.11-.08-.1-.06-.31-.1a3.55,3.55,0,0,1-1.45.41l.72,3.93-1.14.21V67.1l-1-4.75h.21a5.74,5.74,0,0,1,1.45-.41c1.58-.52,3.26-1.16,5-1.55C129.14,62.24,130,63.84,130.06,65.86Z"/><path class="cls-5" d="M121,58c-.06-.49-.23-.66-.31-1.14a23.21,23.21,0,0,0,4.24-3.2h-.1c-.85.77-3.49,1.61-4.65,2.17a1.72,1.72,0,0,0-.41-.83c.07-.18,0-.1.1-.21a8.69,8.69,0,0,1,1.45-.72,20.37,20.37,0,0,1,4.65-2.38c.18.76.62,1.33.83,2.07-1.28.75-2.38,2.2-3.82,2.69v.1c1.58-.16,2.94-.67,4.65-.72A15.45,15.45,0,0,1,128.2,58a19.58,19.58,0,0,0-3.41,1.24c-1,.42-2.05.59-3,1v-.21a1.86,1.86,0,0,1-.31-.93,31.12,31.12,0,0,1,4.65-1.86v-.1h-.52Z"/><path class="cls-5" d="M27,60.07a40.79,40.79,0,0,0,5,1.65l.31-.93c-.31-.73-2-.69-2.58-1.14a1.29,1.29,0,0,1,.31-.93c.5-1.24,2.4-.56,3.31-1.14.27-.17.3-.9.52-1.14v-.1c-1.05,0-2.73.08-3.31.62-.36-.25-.11-.84-.31-1.24A2.11,2.11,0,0,0,29,54.8c-.38-.28-.82-.16-1.34-.1A7.29,7.29,0,0,0,26,57.59a6.45,6.45,0,0,1-.52,1.76C25.67,60,26.42,59.86,27,60.07ZM28,56a1.26,1.26,0,0,1,1.24.31,19.17,19.17,0,0,1-.62,2.89,15.65,15.65,0,0,1-1.65-.52A22.55,22.55,0,0,1,28,56Z"/><path class="cls-5" d="M28.28,52.11c.1-.81,1.85-4.29,2.38-4.55.24.3.65.36.83.72a8.51,8.51,0,0,0-1.55,3h-.1c-.1.1.1.1.1.1a2,2,0,0,0,1.24.62,9.59,9.59,0,0,1,1.55-2.89c.29.27.74.34.93.72a6.87,6.87,0,0,0-1.45,2.89c.52.14,1.26.78,1.65.62.56-.63,1.06-2.68,1.86-2.89.24.3.56.33.72.72-.62.69-1.53,3.62-2.27,3.82a9.42,9.42,0,0,0-2.07-1C31,53.38,29.65,52.35,28.28,52.11Z"/><path class="cls-5" d="M120.45,52.11c1-.66,2.18-.66,2.89-1.65a3.25,3.25,0,0,0-1.45-4.86C117.79,44.42,114.25,52.27,120.45,52.11Zm-2.17-3.41c.57-.62,2.29-2.91,3.62-1.65.81.27.92,1.27.83,2.17a7.68,7.68,0,0,1-1,1.14c-.44.29-1,.32-1.45.62l-1-.1a5.48,5.48,0,0,0-.83-.72A6.44,6.44,0,0,1,118.28,48.7Z"/><path class="cls-5" d="M37.47,49.53l-5.79-3.82a35.47,35.47,0,0,1,2.79-3.93h.1v.1a2,2,0,0,1,.83.72,9.22,9.22,0,0,0-2.07,2.79,3.8,3.8,0,0,1,1,.72c.18-.07.1,0,.21-.1a8.41,8.41,0,0,0,1.76-2.38c.18.07.1,0,.21.1a1.79,1.79,0,0,1,.83.62,8.79,8.79,0,0,0-1.86,2.58A3.6,3.6,0,0,1,37,48h.1v-.1a14.52,14.52,0,0,0,2-2.58h.21c.24.34.56.39.72.83A12.31,12.31,0,0,0,37.47,49.53Z"/><path class="cls-5" d="M112.7,44.26c.92-.33,1.4-1.41,2.27-1.86a3,3,0,0,0,.62.72c0,1.57-.64,2.23-.93,3.41.31.29.47.69.83.93.32-1.16,1.13-1.88,1.14-3.31a3.57,3.57,0,0,0,1.86.31c.16-.16.32-.17.52-.31.35-.26.53-.72.83-1,0-2.34-1.7-2.88-2.58-4.34-.67.24-.93,1-1.45,1.34A29.29,29.29,0,0,0,113,42.71c-.27.27-.6.39-.83.72h-.1v.1A2,2,0,0,1,112.7,44.26ZM117,40.54v-.1h.1a7,7,0,0,0,1.45,1.76,1.42,1.42,0,0,1-.41,1.14h-.72c-.46-.48-1.22-1-1.45-1.65h-.1A2.38,2.38,0,0,1,117,40.54Z"/><path class="cls-5" d="M110.84,41.37l1.34-.41a4.57,4.57,0,0,0,2.48-4.34c-.8-.84-1.61-2.18-2.79-2.58-.11-.08,0,0-.21-.1-.61,1-1.51,1.7-2.17,2.58a13.08,13.08,0,0,1-2.07,2.58v.21C108.63,40,109.15,41.06,110.84,41.37Zm1-5.79v-.1h.1a19.43,19.43,0,0,0,1.55,1.65c0,1.85-1.33,2.28-2.38,3.1-1.15-.05-1.46-.76-2.17-1.24A19.26,19.26,0,0,1,111.87,35.58Z"/><path class="cls-5" d="M39.85,39.2c1.22.92,2,2.46,3.31,3.31a10.07,10.07,0,0,1,2.17-2l.62-.93a2.2,2.2,0,0,0-1.34-2.38v-.1h-1c.36-1-.32-1.5-.72-2.07-2.39-.55-3.18,1.49-4.65,2.48C38.45,38.26,39.28,38.77,39.85,39.2Zm3.62-1c.92,0,1.2.21,1.34.93-.54.62-1.3,1.21-1.76,1.86-.5-.34-.74-.91-1.24-1.24C42.24,39.06,43,38.76,43.47,38.16ZM41.71,36.1a2.4,2.4,0,0,1,.83.21c.07.18,0,.1.1.21,0,1.32-1,1.48-1.55,2.27-.56-.2-.78-.73-1.24-1A10.7,10.7,0,0,1,41.71,36.1Z"/><path class="cls-5" d="M105.88,38.06c-.49-.22-.9-.42-.93-1.14.42-.65.52-3.39.52-4.44h-.1v.21c-.9.74-1.5,3-2.48,3.51a2.48,2.48,0,0,0-.72-.52A37.72,37.72,0,0,1,105,31.24c.32-.48.38-1.2,1-1.34.52.49.85.34.83,1.45a37.82,37.82,0,0,0-.52,4.24h.1a21.61,21.61,0,0,1,2.69-3.72c.27.28.66.44.93.72h-.1C108.91,34.6,107,36.14,105.88,38.06Z"/><path class="cls-5" d="M49.26,37.44c-2.53.08-5.41-2.54-4.34-5.06.55-1.3,3.81-2.78,4.55-.72a2,2,0,0,0-.72.62,4.29,4.29,0,0,0-1.55-.41c-.18.17-.4.16-.62.31s-.39.59-.62.83C45.89,35,47,36.36,49,36.3c.27-.26.72-.41.93-.72s.14-.44.31-.62a1.24,1.24,0,0,0-.62-.83c-.21.23-1,.72-1.14.62a3.47,3.47,0,0,1-.62-.93c.85-.26,1.38-1,2.27-1.24.28,1,1.25,1.47,1.34,2.69-.41.44-.55,1.19-1,1.55S49.62,37.16,49.26,37.44Z"/><path class="cls-5" d="M53.91,34.75c-.21,0-.2,0-.31-.1a11.82,11.82,0,0,1-1.14-2.07,16.57,16.57,0,0,1-2.17-3.82c.71-.17,1.16-.63,1.86-.83.49,1.41,2.18,2.19,2.69,3.62h.1v-.31a13.31,13.31,0,0,1-1-4.13,7.31,7.31,0,0,1,1.86-.72c.52,2.22,2.19,4,2.58,6.3l-.93.31c-.4-1.63-1.61-2.9-2.07-4.55h-.1v.31l1.24,4.75a8.23,8.23,0,0,1-1,.31,20.63,20.63,0,0,0-3.2-3.93c.68,1.51,1.81,2.9,2.27,4.55A1.18,1.18,0,0,0,53.91,34.75Z"/><path class="cls-5" d="M100.51,27.11l.1,3.1h.1a6.33,6.33,0,0,1,2.58-1.76,2.43,2.43,0,0,0,1,.52c-.09.11,0,0-.1.1-1,1-2.51,1.5-3.62,2.38l-1.45,2.69a3.29,3.29,0,0,1-.93-.52,4.09,4.09,0,0,0,.52-1,10.79,10.79,0,0,0,.83-1.45l-.31-4.44h.21A2.13,2.13,0,0,0,100.51,27.11Z"/><path class="cls-5" d="M92.86,29.17a1.88,1.88,0,0,0,.1.93c.11.34.18.4.52.52a1.75,1.75,0,0,0,1.14.21c.17-.23.29-.21.41-.52a.89.89,0,0,0,.1-.52c-.55-.51-1.15-.87-1.76-1.34l-.62-.93A5.86,5.86,0,0,1,93,25.87c.32-.21.43-.48.83-.62,1-.83,3,.3,3.2,1a1.81,1.81,0,0,1,0,1.65,3.48,3.48,0,0,1-.93-.41,3.58,3.58,0,0,1-.21-.93c-.62-.33-1.81-.83-2,.31C94.81,27.71,97.3,29,96,31c-.26.39-.8.61-1.14.93a3.16,3.16,0,0,1-3-1.24,6.45,6.45,0,0,1,0-1.76H92A2,2,0,0,0,92.86,29.17Z"/><path class="cls-5" d="M61.34,26.07c.31.86,1.31,4.64,1.76,5.06.62-.45,1.59-.32,2.38-.62.5-.19.82-.66,1.24-.93.51-2.08.28-5.06-1.65-5.58-.61-.42-3.54.23-4,.62A4.61,4.61,0,0,0,61.34,26.07Zm3.31-1,.72.52c.37.54,1,2.49.41,3.2-.27.75-1.15.53-1.76.93h-.41l-1.24-4.24A5.34,5.34,0,0,1,64.65,25Z"/><path class="cls-5" d="M77.47,29.17c-.28-2.47-1.87-4.47-2.27-6.82h1.24l1.65,5v-.1a27.23,27.23,0,0,0,1.45-3.62c.13-.3.15-1,.41-1.14h1.24v.21c-.67.77-1.52,3.47-2,4.55a11.3,11.3,0,0,1-.62,2Z"/><path class="cls-5" d="M71.88,29.59c.12-.08.17-.08.41-.1.59-.54,1.23-.82,1.55-1.65,1-2.64-.74-6.19-3.72-5.17S68,29.69,71.88,29.59Zm-2.38-4.75c.33-.35.41-.75.93-.93s.84-.15,1.34-.1c.25.25.64.41.83.72.64,1.05.43,3.38-.62,3.72-.09.07-.32.14-.41.21a1.41,1.41,0,0,1-1-.31C69.49,27.78,69.42,26.05,69.51,24.83Z"/><path class="cls-5" d="M90.9,28c-.86-.05-1.4-.36-2.27-.41l.21-1.24h.1a5.44,5.44,0,0,0,2.17.52Z"/><path class="cls-5" d="M82.32,29.48A3.84,3.84,0,0,0,83,27.93a3.29,3.29,0,0,1,1.34.21,1.58,1.58,0,0,1,.93.21l.1,1.45h.1v.1A.89.89,0,0,1,86,30h.52L86,26.18a18,18,0,0,1-.62-3.2h-.1v-.1h-.93c-.33.18-.54,1.19-.72,1.55-.61,1.17-2.13,3.58-2.27,5A1.92,1.92,0,0,1,82.32,29.48Zm2.27-4.65v-.21c.4.51.31,1.7.52,2.38a.89.89,0,0,1-.52-.1,3,3,0,0,1-.93-.1A4.35,4.35,0,0,1,84.59,24.83Z"/><path class="cls-5" d="M52,48.67V40.94h4.78v1.31H53.4v1.83h2.91v1.31H53.4v3.29Z"/><path class="cls-5" d="M57.94,48.67V40.94h3a4.6,4.6,0,0,1,1.62.21,1.65,1.65,0,0,1,.81.74,2.41,2.41,0,0,1,.3,1.22,2.21,2.21,0,0,1-.46,1.44,2.14,2.14,0,0,1-1.38.72,3.36,3.36,0,0,1,.75.65,8.87,8.87,0,0,1,.8,1.26l.85,1.51H62.53l-1-1.68a11,11,0,0,0-.74-1.14,1.08,1.08,0,0,0-.42-.32,2.11,2.11,0,0,0-.71-.09h-.29v3.23Zm1.41-4.46h1a4.87,4.87,0,0,0,1.27-.09.77.77,0,0,0,.39-.33,1.09,1.09,0,0,0,.14-.58,1,1,0,0,0-.19-.63.84.84,0,0,0-.53-.3q-.17,0-1,0h-1.1Z"/><path class="cls-5" d="M65,48.67V40.94h5.17v1.31H66.38V44h3.5v1.3h-3.5v2.11h3.9v1.3Z"/><path class="cls-5" d="M71.47,48.67V40.94h5.17v1.31H72.88V44h3.5v1.3h-3.5v2.11h3.9v1.3Z"/><path class="cls-5" d="M80.68,40.94h2.79A7.28,7.28,0,0,1,84.7,41a1.72,1.72,0,0,1,.73.32A1.92,1.92,0,0,1,86,42a1.9,1.9,0,0,1,.21.91,2,2,0,0,1-.26,1,1.7,1.7,0,0,1-.72.68,1.83,1.83,0,0,1,1,.7,2,2,0,0,1,.34,1.17,2.51,2.51,0,0,1-.22,1,2,2,0,0,1-.6.8,1.87,1.87,0,0,1-.94.37q-.35,0-1.7.05H80.68Zm1.41,1.29V44H83q.82,0,1,0a.89.89,0,0,0,.57-.28.87.87,0,0,0,.21-.6.91.91,0,0,0-.18-.58.78.78,0,0,0-.53-.27q-.21,0-1.2,0Zm0,3.08v2.07h1.3a5.75,5.75,0,0,0,1,0,.85.85,0,0,0,.51-.31,1,1,0,0,0,.2-.66,1.09,1.09,0,0,0-.15-.59.87.87,0,0,0-.44-.35,4.33,4.33,0,0,0-1.25-.11Z"/><path class="cls-5" d="M91,45.83v-1.3h3v3.08a3.76,3.76,0,0,1-1.28.84,4.27,4.27,0,0,1-1.7.36,3.52,3.52,0,0,1-1.91-.51,3.13,3.13,0,0,1-1.22-1.46,5.14,5.14,0,0,1-.41-2.06,4.85,4.85,0,0,1,.46-2.15,3.25,3.25,0,0,1,1.34-1.44,3.31,3.31,0,0,1,1.67-.39,3.09,3.09,0,0,1,2,.6,2.78,2.78,0,0,1,.94,1.67l-1.4.29a1.65,1.65,0,0,0-.55-.9,1.56,1.56,0,0,0-1-.33,1.82,1.82,0,0,0-1.47.65,2.93,2.93,0,0,0-.54,1.93,3.26,3.26,0,0,0,.55,2.07,1.76,1.76,0,0,0,1.45.69,2.22,2.22,0,0,0,.89-.19,3,3,0,0,0,.76-.47v-1Z"/><path class="cls-5" d="M95.27,48.67V40.94h2.11l1.27,5.28,1.25-5.28H102v7.74H100.7V42.58l-1.38,6.09H98l-1.38-6.09v6.09Z"/><path class="cls-5" d="M49.51,106.12h1.67a3,3,0,0,1,.86.1,1.5,1.5,0,0,1,.68.46,2.26,2.26,0,0,1,.43.82,4.1,4.1,0,0,1,.15,1.19,3.65,3.65,0,0,1-.14,1.07,2.27,2.27,0,0,1-.49.89,1.58,1.58,0,0,1-.64.4,2.51,2.51,0,0,1-.81.11H49.51Zm.92.85v3.34h.68a2.25,2.25,0,0,0,.55,0A.82.82,0,0,0,52,110a1.1,1.1,0,0,0,.24-.49,3.63,3.63,0,0,0,.09-.92,3.33,3.33,0,0,0-.09-.9,1.18,1.18,0,0,0-.26-.49.84.84,0,0,0-.42-.24,3.74,3.74,0,0,0-.75,0Z"/><path class="cls-5" d="M53.8,108.67a3.52,3.52,0,0,1,.21-1.29,2.4,2.4,0,0,1,.42-.69,1.77,1.77,0,0,1,.59-.45,2.27,2.27,0,0,1,1-.2,2,2,0,0,1,1.6.69,3.36,3.36,0,0,1,0,3.83,2.21,2.21,0,0,1-3.2,0A2.78,2.78,0,0,1,53.8,108.67Zm.94,0a2,2,0,0,0,.36,1.3,1.14,1.14,0,0,0,1.8,0,2.07,2.07,0,0,0,.35-1.31,2,2,0,0,0-.34-1.29,1.18,1.18,0,0,0-1.82,0A2,2,0,0,0,54.74,108.63Z"/><path class="cls-5" d="M59.85,111.16l-1.62-5h1l1.15,3.73,1.11-3.73h1l-1.62,5Z"/><path class="cls-5" d="M66.69,111.16h-1L65.3,110H63.49l-.37,1.14h-1l1.77-5h1Zm-1.68-2-.62-1.87-.61,1.87Z"/><path class="cls-5" d="M66.69,109.19v-1H68.4v1Z"/><path class="cls-5" d="M68.89,109.52l.89-.1a1.26,1.26,0,0,0,.33.73.92.92,0,0,0,.66.23,1,1,0,0,0,.67-.21.64.64,0,0,0,.22-.49.49.49,0,0,0-.09-.3.75.75,0,0,0-.33-.22l-.73-.22a2.37,2.37,0,0,1-1-.5,1.38,1.38,0,0,1-.42-1,1.4,1.4,0,0,1,.2-.72,1.27,1.27,0,0,1,.57-.51,2.07,2.07,0,0,1,.89-.18,1.78,1.78,0,0,1,1.28.42,1.54,1.54,0,0,1,.45,1.11l-.92,0a.9.9,0,0,0-.25-.56.86.86,0,0,0-.58-.17,1,1,0,0,0-.62.18.38.38,0,0,0-.15.31.4.4,0,0,0,.14.31,2.26,2.26,0,0,0,.84.34,4.14,4.14,0,0,1,1,.36,1.34,1.34,0,0,1,.5.51,1.63,1.63,0,0,1,.18.8,1.6,1.6,0,0,1-.22.81,1.34,1.34,0,0,1-.61.56,2.34,2.34,0,0,1-1,.18,1.83,1.83,0,0,1-1.32-.44A2,2,0,0,1,68.89,109.52Z"/><path class="cls-5" d="M74.35,111.16V109l-1.66-2.92h1.07l1.07,2,1-2h1.05L75.27,109v2.11Z"/><path class="cls-5" d="M77.27,111.16v-5h.89L80,109.48v-3.36h.85v5h-.92l-1.83-3.28v3.28Z"/><path class="cls-5" d="M81.83,106.12H83.5a3,3,0,0,1,.86.1,1.5,1.5,0,0,1,.68.46,2.26,2.26,0,0,1,.43.82,4.1,4.1,0,0,1,.15,1.19,3.65,3.65,0,0,1-.14,1.07,2.27,2.27,0,0,1-.49.89,1.58,1.58,0,0,1-.64.4,2.51,2.51,0,0,1-.81.11H81.83Zm.92.85v3.34h.68a2.25,2.25,0,0,0,.55,0,.82.82,0,0,0,.37-.21,1.1,1.1,0,0,0,.24-.49,3.63,3.63,0,0,0,.09-.92,3.32,3.32,0,0,0-.09-.9,1.18,1.18,0,0,0-.26-.49.84.84,0,0,0-.42-.24,3.74,3.74,0,0,0-.75,0Z"/><path class="cls-5" d="M86.38,111.16v-5H88.3a3,3,0,0,1,1.06.14,1.07,1.07,0,0,1,.53.48,1.57,1.57,0,0,1,.2.79,1.44,1.44,0,0,1-.3.94,1.39,1.39,0,0,1-.9.47,2.19,2.19,0,0,1,.49.42,5.78,5.78,0,0,1,.52.82l.55,1H89.36l-.66-1.1a7.12,7.12,0,0,0-.48-.74.71.71,0,0,0-.28-.21,1.37,1.37,0,0,0-.46-.06h-.19v2.1Zm.92-2.91H88a3.16,3.16,0,0,0,.82-.06A.5.5,0,0,0,89,108a.71.71,0,0,0,.09-.38.65.65,0,0,0-.12-.41.55.55,0,0,0-.34-.2L88,107h-.71Z"/><path class="cls-5" d="M90.61,108.67a3.52,3.52,0,0,1,.21-1.29,2.4,2.4,0,0,1,.42-.69,1.77,1.77,0,0,1,.59-.45,2.27,2.27,0,0,1,1-.2,2,2,0,0,1,1.6.69,3.36,3.36,0,0,1,0,3.83,2.21,2.21,0,0,1-3.2,0A2.78,2.78,0,0,1,90.61,108.67Zm.94,0a2,2,0,0,0,.36,1.3,1.14,1.14,0,0,0,1.8,0,2.07,2.07,0,0,0,.35-1.31,2,2,0,0,0-.34-1.29,1.18,1.18,0,0,0-1.82,0A2,2,0,0,0,91.56,108.63Z"/><path class="cls-5" d="M95.67,111.16v-5H97l.8,3.43.79-3.43H100v5h-.83v-4l-.88,4h-.86l-.88-4v4Z"/><path class="cls-5" d="M101,111.16v-5h3.36V107H102v1.12h2.28v.85H102v1.37h2.53v.85Z"/><path class="cls-5" d="M104.92,78.29,90.49,72.88l-.75-.28-.56.56-3.71,3.71-1.36,1.36,1.81.67,10.32,3.85L78,89.55,59.83,82.76l10.32-3.85L72,78.24l-1.36-1.36-3.71-3.71-.56-.56-.75.28L51.14,78.29l-.8.3V93.54l.8.3,26.45,9.92.44.16.44-.16,26.45-9.92.8-.3V78.6Zm.18,1.18V93.13l-.4.15L78.25,103.2l-.22.08-.22-.08L51.36,93.28l-.4-.15V79l.4-.15,14.43-5.41.37-.14.28.28,3.71,3.71.68.68-.9.34L58.05,82.78l20,7.45,20-7.45L86.13,78.35l-.9-.34.68-.68,3.71-3.71.28-.28.37.14,14.43,5.41.4.15Z"/><path class="cls-5" d="M77.16,80.33l.88.88.88-.88L92.14,67.1,94.25,65H82.58V51.76H73.49V65H61.81l2.12,2.12ZM64.81,65.63h9.3V52.4H82V65.63h10.8L91.7,66.69,78.47,79.91l-.44.44-.44-.44L64.37,66.69l-1.06-1.06Z"/><path class="cls-5" d="M78,79.5,91.26,66.27H81.34V53H74.73V66.27H64.81Zm12-5.41-3.71,3.71,13.44,5L78,90.92,56.28,82.8l13.44-5L66,74.09,51.58,79.5V92.72L78,102.64l26.45-9.92V79.5Z"/><path class="cls-6" d="M257.76,39.09,257,40a4.19,4.19,0,0,1-1-.71,2.54,2.54,0,0,1-.8.5,2.83,2.83,0,0,1-1,.16,2.22,2.22,0,0,1-1.74-.65,1.68,1.68,0,0,1-.45-1.15,1.74,1.74,0,0,1,.35-1.07,2.9,2.9,0,0,1,1.06-.82,3.36,3.36,0,0,1-.48-.71,1.5,1.5,0,0,1-.16-.64,1.21,1.21,0,0,1,.45-1,1.9,1.9,0,0,1,1.28-.39,1.8,1.8,0,0,1,1.25.41,1.3,1.3,0,0,1,.45,1,1.27,1.27,0,0,1-.22.71,3,3,0,0,1-.9.76l.86,1.13a2.89,2.89,0,0,0,.26-.7l1.07.24A6.6,6.6,0,0,1,257,38a2.23,2.23,0,0,1-.25.44,4.82,4.82,0,0,0,.51.41A3.87,3.87,0,0,0,257.76,39.09ZM254.07,37a1.6,1.6,0,0,0-.61.5,1,1,0,0,0-.2.59.83.83,0,0,0,.25.63.93.93,0,0,0,.67.24,1.35,1.35,0,0,0,.54-.11,2.34,2.34,0,0,0,.56-.36Zm.46-1.29.32-.24a.74.74,0,0,0,.35-.54.51.51,0,0,0-.17-.39.75.75,0,0,0-.9,0,.42.42,0,0,0-.16.33.89.89,0,0,0,.27.53Z"/><path class="cls-6" d="M195.55,37.49l1.66.53a3.71,3.71,0,0,1-1.27,2.06,4,4,0,0,1-5-.48,4.4,4.4,0,0,1-1.09-3.15,4.62,4.62,0,0,1,1.09-3.28A3.75,3.75,0,0,1,193.8,32a3.53,3.53,0,0,1,2.53.92,3.34,3.34,0,0,1,.87,1.56l-1.69.4a1.75,1.75,0,0,0-1.79-1.42,1.93,1.93,0,0,0-1.53.68,3.31,3.31,0,0,0-.59,2.19,3.54,3.54,0,0,0,.58,2.29,1.88,1.88,0,0,0,1.5.68,1.71,1.71,0,0,0,1.17-.43A2.51,2.51,0,0,0,195.55,37.49Z"/><path class="cls-6" d="M199.63,40.61V32.14h1.71v3.33h3.35V32.14h1.71v8.46h-1.71v-3.7h-3.35v3.7Z"/><path class="cls-6" d="M216.76,40.61H214.9l-.74-1.92h-3.39l-.7,1.92h-1.81l3.3-8.46h1.81Zm-3.15-3.35-1.17-3.14-1.14,3.14Z"/><path class="cls-6" d="M218.62,40.61V32.14h3.6a6.17,6.17,0,0,1,2,.23,2,2,0,0,1,1,.81,2.44,2.44,0,0,1,.37,1.33,2.26,2.26,0,0,1-.56,1.57,2.69,2.69,0,0,1-1.68.78,4,4,0,0,1,.92.71,9.66,9.66,0,0,1,1,1.37l1,1.65h-2l-1.24-1.84a12,12,0,0,0-.9-1.24,1.32,1.32,0,0,0-.51-.35,2.84,2.84,0,0,0-.86-.1h-.35v3.53Zm1.71-4.88h1.27a6.54,6.54,0,0,0,1.54-.1.92.92,0,0,0,.48-.36,1.1,1.1,0,0,0,.17-.63,1,1,0,0,0-.23-.69,1.05,1.05,0,0,0-.64-.33q-.21,0-1.25,0h-1.33Z"/><path class="cls-6" d="M232,37.49V36.07h3.69v3.37a4.64,4.64,0,0,1-1.56.92,5.67,5.67,0,0,1-2.07.4,4.64,4.64,0,0,1-2.32-.56,3.54,3.54,0,0,1-1.49-1.59,5.14,5.14,0,0,1-.5-2.25,4.87,4.87,0,0,1,.55-2.35A3.73,3.73,0,0,1,230,32.42a4.38,4.38,0,0,1,2-.42,4.05,4.05,0,0,1,2.46.66,3,3,0,0,1,1.14,1.83l-1.7.32a1.79,1.79,0,0,0-.67-1,2,2,0,0,0-1.23-.36,2.32,2.32,0,0,0-1.78.71,3,3,0,0,0-.66,2.11,3.31,3.31,0,0,0,.67,2.26,2.24,2.24,0,0,0,1.76.75,2.94,2.94,0,0,0,1.08-.21,3.69,3.69,0,0,0,.93-.51V37.49Z"/><path class="cls-6" d="M238.25,40.61V32.14h6.28v1.43H240v1.88h4.25v1.43H240v2.3h4.73v1.43Z"/><path class="cls-6" d="M265.06,40.61V32.14h3.6a6.17,6.17,0,0,1,2,.23,2,2,0,0,1,1,.81,2.44,2.44,0,0,1,.37,1.33,2.26,2.26,0,0,1-.56,1.57,2.69,2.69,0,0,1-1.68.78,4,4,0,0,1,.92.71,9.66,9.66,0,0,1,1,1.37l1,1.65h-2l-1.24-1.84a12,12,0,0,0-.9-1.24,1.32,1.32,0,0,0-.51-.35,2.84,2.84,0,0,0-.86-.1h-.35v3.53Zm1.71-4.88H268a6.54,6.54,0,0,0,1.54-.1.92.92,0,0,0,.48-.36,1.1,1.1,0,0,0,.17-.63,1,1,0,0,0-.23-.69,1.05,1.05,0,0,0-.64-.33q-.21,0-1.25,0h-1.33Z"/><path class="cls-6" d="M274.2,36.43a5.38,5.38,0,0,1,.39-2.17,4,4,0,0,1,.79-1.16,3.29,3.29,0,0,1,1.09-.76,4.65,4.65,0,0,1,1.83-.33,4,4,0,0,1,3,1.16,4.44,4.44,0,0,1,1.12,3.23,4.43,4.43,0,0,1-1.12,3.21,4,4,0,0,1-3,1.16,4,4,0,0,1-3-1.15A4.37,4.37,0,0,1,274.2,36.43Zm1.76-.06a3.17,3.17,0,0,0,.66,2.18,2.29,2.29,0,0,0,3.37,0,3.23,3.23,0,0,0,.66-2.21,3.18,3.18,0,0,0-.64-2.17,2.37,2.37,0,0,0-3.4,0A3.2,3.2,0,0,0,276,36.37Z"/><path class="cls-6" d="M286.92,40.61V37l-3.1-4.9h2l2,3.35,2-3.35h2l-3.11,4.91v3.55Z"/><path class="cls-6" d="M301.17,40.61h-1.86l-.74-1.92h-3.39l-.7,1.92h-1.81l3.3-8.46h1.81ZM298,37.26l-1.17-3.14-1.14,3.14Z"/><path class="cls-6" d="M303.07,40.61V32.21h1.71v7H309v1.43Z"/><path class="cls-6" d="M313.11,40.61v-7H310.6V32.14h6.73v1.43h-2.51v7Z"/><path class="cls-6" d="M321.6,40.61V37l-3.1-4.9h2l2,3.35,2-3.35h2l-3.11,4.91v3.55Z"/><path class="cls-6" d="M332.46,40.61V32.14h5.81v1.43h-4.1v2h3.54V37h-3.54v3.6Z"/><path class="cls-6" d="M340.63,40.61V32.14h3.6a6.17,6.17,0,0,1,2,.23,2,2,0,0,1,1,.81,2.44,2.44,0,0,1,.37,1.33,2.26,2.26,0,0,1-.56,1.57,2.69,2.69,0,0,1-1.68.78,4,4,0,0,1,.92.71,9.66,9.66,0,0,1,1,1.37l1,1.65h-2L345,38.76a12,12,0,0,0-.9-1.24,1.32,1.32,0,0,0-.51-.35,2.84,2.84,0,0,0-.86-.1h-.35v3.53Zm1.71-4.88h1.27a6.54,6.54,0,0,0,1.54-.1.92.92,0,0,0,.48-.36,1.1,1.1,0,0,0,.17-.63,1,1,0,0,0-.23-.69,1.05,1.05,0,0,0-.64-.33q-.21,0-1.25,0h-1.33Z"/><path class="cls-6" d="M350.12,40.61V32.14h6.28v1.43h-4.57v1.88h4.25v1.43h-4.25v2.3h4.73v1.43Z"/><path class="cls-6" d="M359,40.61V32.14h6.28v1.43h-4.57v1.88h4.25v1.43h-4.25v2.3h4.73v1.43Z"/><path class="cls-6" d="M372,32.14h3.39a9.79,9.79,0,0,1,1.5.08,2.2,2.2,0,0,1,.88.35,2.17,2.17,0,0,1,.65.71,1.91,1.91,0,0,1,.26,1,2,2,0,0,1-1.19,1.84,2.23,2.23,0,0,1,1.19.77,2,2,0,0,1,.42,1.28,2.52,2.52,0,0,1-.27,1.12,2.27,2.27,0,0,1-.73.87,2.43,2.43,0,0,1-1.15.4q-.43,0-2.06.06H372Zm1.71,1.41v2h1.12q1,0,1.24,0a1.13,1.13,0,0,0,.69-.3.89.89,0,0,0,.25-.66.93.93,0,0,0-.22-.64,1,1,0,0,0-.64-.3q-.25,0-1.46,0Zm0,3.37v2.26h1.58a7.76,7.76,0,0,0,1.17-.05,1.06,1.06,0,0,0,.62-.34,1,1,0,0,0,.24-.72,1.1,1.1,0,0,0-.18-.65,1,1,0,0,0-.53-.39,5.82,5.82,0,0,0-1.52-.12Z"/><path class="cls-6" d="M385.46,37.49V36.07h3.69v3.37a4.64,4.64,0,0,1-1.56.92,5.67,5.67,0,0,1-2.07.4,4.64,4.64,0,0,1-2.32-.56,3.54,3.54,0,0,1-1.49-1.59,5.14,5.14,0,0,1-.5-2.25,4.87,4.87,0,0,1,.55-2.35,3.73,3.73,0,0,1,1.62-1.58,4.38,4.38,0,0,1,2-.42,4.05,4.05,0,0,1,2.46.66A3,3,0,0,1,389,34.49l-1.7.32a1.79,1.79,0,0,0-.67-1,2,2,0,0,0-1.23-.36,2.32,2.32,0,0,0-1.78.71,3,3,0,0,0-.66,2.11,3.31,3.31,0,0,0,.67,2.26,2.24,2.24,0,0,0,1.76.75,2.94,2.94,0,0,0,1.08-.21,3.69,3.69,0,0,0,.93-.51V37.49Z"/><path class="cls-6" d="M391.65,40.61V32.14h2.56l1.54,5.77,1.52-5.77h2.57v8.46h-1.59V33.95l-1.68,6.66h-1.65l-1.68-6.66v6.66Z"/><rect class="cls-6" x="280.72" y="68.01" width="6.84" height="3.17"/><path class="cls-6" d="M200.63,79a6.81,6.81,0,0,0,2.72-1.54A8.73,8.73,0,0,0,205.42,74a13.31,13.31,0,0,0,.6-4.24,15,15,0,0,0-.64-4.72,8.64,8.64,0,0,0-1.85-3.18,6.41,6.41,0,0,0-2.88-1.78,14.11,14.11,0,0,0-3.74-.37h-7.08V79.45h7.3A11.92,11.92,0,0,0,200.63,79Zm-7.1-2.28a.38.38,0,0,1-.39-.38V62.81a.38.38,0,0,1,.39-.38h1.83a18.31,18.31,0,0,1,3.44.21,4.26,4.26,0,0,1,2.07,1.06,5.09,5.09,0,0,1,1.26,2.14,12.59,12.59,0,0,1,.43,3.76,13.94,13.94,0,0,1-.43,3.86A4.65,4.65,0,0,1,201,75.6a4.16,4.16,0,0,1-1.82.94,11.2,11.2,0,0,1-2.57.21Z"/><path class="cls-6" d="M221.48,59.38a10.66,10.66,0,0,0-4.21.78,7.52,7.52,0,0,0-2.49,1.76,9.33,9.33,0,0,0-1.81,2.7,12.87,12.87,0,0,0-.89,5.1,10.34,10.34,0,0,0,2.56,7.42,10.15,10.15,0,0,0,13.73,0,10.5,10.5,0,0,0,2.56-7.5c0-3.22-.87-5.76-2.58-7.55A9.1,9.1,0,0,0,221.48,59.38Zm4.34,15.73a5.8,5.8,0,0,1-8.62,0,8.12,8.12,0,0,1-1.68-5.52A8.19,8.19,0,0,1,217.16,64a6,6,0,0,1,8.71,0,8.15,8.15,0,0,1,1.62,5.5A8.28,8.28,0,0,1,225.83,75.11Z"/><path class="cls-6" d="M244.59,74.88h0a.39.39,0,0,1-.37-.26l-5-14.9h-3.61l7,19.72h3.81l7-19.72h-3.51L245,74.62A.39.39,0,0,1,244.59,74.88Z"/><path class="cls-6" d="M263.83,59.72l-7.59,19.72h3.5l1.58-4.4a.39.39,0,0,1,.36-.25h8.09a.39.39,0,0,1,.36.25l1.67,4.41h3.61l-7.8-19.72Zm4.95,12.22a.39.39,0,0,1-.32.16h-5.52a.39.39,0,0,1-.32-.16.37.37,0,0,1,0-.34l2.73-7.6a.39.39,0,0,1,.36-.25h0A.39.39,0,0,1,266,64l2.79,7.6A.37.37,0,0,1,268.78,71.94Z"/><path class="cls-6" d="M308.61,77a5.74,5.74,0,0,0,.91-3.1,5.82,5.82,0,0,0-.75-3.07,5.36,5.36,0,0,0-2.09-1.94,19.35,19.35,0,0,0-4.32-1.44A10.78,10.78,0,0,1,298.44,66a2,2,0,0,1-.74-1.53,1.86,1.86,0,0,1,.8-1.57,5,5,0,0,1,3-.82,4.48,4.48,0,0,1,2.83.78,3.69,3.69,0,0,1,1.2,2.17l3.36-.15A5.57,5.57,0,0,0,307,61a8.14,8.14,0,0,0-5.48-1.59,9.67,9.67,0,0,0-3.83.68A5.15,5.15,0,0,0,295.38,62a5.05,5.05,0,0,0,.92,6.57,10.74,10.74,0,0,0,4.44,1.94c1.7.43,2.81.73,3.3.9a3.71,3.71,0,0,1,1.64,1,2.26,2.26,0,0,1,.51,1.48,2.89,2.89,0,0,1-1.13,2.26,4.9,4.9,0,0,1-3.23.94,4.76,4.76,0,0,1-3.22-1,5.08,5.08,0,0,1-1.51-2.85l-3.23.32a7.32,7.32,0,0,0,2.28,4.61,8.36,8.36,0,0,0,5.64,1.7,11,11,0,0,0,4.25-.72A5.46,5.46,0,0,0,308.61,77Z"/><path class="cls-6" d="M324.57,79.45V71.23a.37.37,0,0,1,.06-.2l7.08-11.31h-3.79l-4.55,7.91a.31.31,0,0,1-.34.19.39.39,0,0,1-.34-.19L318,59.72h-3.88L321.21,71a.37.37,0,0,1,.06.2v8.24Z"/><path class="cls-6" d="M349.33,73.39a.39.39,0,0,1-.43-.17l-8.17-13.49h-3.37V79.45h3v-13a.38.38,0,0,1,.28-.36.39.39,0,0,1,.43.17l8,13.17h3.49V59.72h-3V73A.38.38,0,0,1,349.33,73.39Z"/><path class="cls-6" d="M374.49,61.88a6.4,6.4,0,0,0-2.88-1.78,14.11,14.11,0,0,0-3.74-.37H360.8V79.45h7.3a11.91,11.91,0,0,0,3.5-.41,6.82,6.82,0,0,0,2.72-1.54A8.72,8.72,0,0,0,376.38,74a13.31,13.31,0,0,0,.6-4.24,15,15,0,0,0-.64-4.72A8.62,8.62,0,0,0,374.49,61.88Zm-1.39,11.58a4.66,4.66,0,0,1-1.18,2.15,4.15,4.15,0,0,1-1.82.94,11.21,11.21,0,0,1-2.57.21h-3a.38.38,0,0,1-.39-.38V62.81a.38.38,0,0,1,.39-.38h1.84a18.31,18.31,0,0,1,3.44.21,4.26,4.26,0,0,1,2.07,1.06,5.09,5.09,0,0,1,1.26,2.14,12.79,12.79,0,0,1,.43,3.76A14,14,0,0,1,373.11,73.46Z"/><path class="cls-6" d="M388.42,70.9a6.92,6.92,0,0,1,2.19.25,3.52,3.52,0,0,1,1.38,1,28.71,28.71,0,0,1,2.19,3.06L397,79.45h4L398.89,76a23.16,23.16,0,0,0-2.28-3.27,9.21,9.21,0,0,0-2.1-1.65.38.38,0,0,1-.18-.4.38.38,0,0,1,.32-.3,6,6,0,0,0,3.77-1.77,5.17,5.17,0,0,0,1.24-3.56,5.61,5.61,0,0,0-.83-3,4.25,4.25,0,0,0-2.16-1.81,14.31,14.31,0,0,0-4.57-.53h-8.21V79.45h3.31V71.28a.38.38,0,0,1,.39-.38ZM387.2,68v-5.2a.38.38,0,0,1,.39-.38h3.19a28.54,28.54,0,0,1,3,.07,2.89,2.89,0,0,1,1.78.94,2.84,2.84,0,0,1,.64,1.91,3.07,3.07,0,0,1-.48,1.74,2.59,2.59,0,0,1-1.34,1,13.48,13.48,0,0,1-3.8.27h-3A.38.38,0,0,1,387.2,68Z"/><path class="cls-6" d="M415.51,59.38a10.65,10.65,0,0,0-4.21.78,7.51,7.51,0,0,0-2.49,1.76,9.32,9.32,0,0,0-1.81,2.7,12.87,12.87,0,0,0-.89,5.1,10.34,10.34,0,0,0,2.56,7.42,10.15,10.15,0,0,0,13.73,0,10.5,10.5,0,0,0,2.56-7.5c0-3.22-.87-5.76-2.58-7.55A9.1,9.1,0,0,0,415.51,59.38Zm4.34,15.73a5.8,5.8,0,0,1-8.62,0,8.12,8.12,0,0,1-1.68-5.52A8.2,8.2,0,0,1,411.19,64a6,6,0,0,1,8.71,0,8.15,8.15,0,0,1,1.62,5.5A8.28,8.28,0,0,1,419.86,75.11Z"/><path class="cls-6" d="M446.37,63.33a.38.38,0,0,1,.34.38V79.45h3V59.72h-5.44l-3.55,13.68a.38.38,0,0,1-.37.29h0a.39.39,0,0,1-.37-.28l-3.6-13.68H431V79.45h3V63.7a.38.38,0,0,1,.34-.38.4.4,0,0,1,.42.29l3.93,15.83H442l3.94-15.83A.4.4,0,0,1,446.37,63.33Z"/><path class="cls-6" d="M457.22,79.45h14.62V76.75H460.92a.38.38,0,0,1-.39-.38V70.8a.38.38,0,0,1,.39-.38h9.77V67.73h-9.77a.38.38,0,0,1-.39-.38V62.81a.38.38,0,0,1,.39-.38h10.53V59.72H457.22Z"/></g></g></svg>